<svg version="1.2" xmlns="http://www.w3.org/2000/svg" viewBox="0 0 500 500" width="500" height="500"><defs><linearGradient id="P" gradientUnits="userSpaceOnUse"/><linearGradient id="g1" x1="174.8" y1="72.7" x2="123.8" y2="361.6" href="#P"><stop stop-color="#0078ff"/><stop offset="1" stop-color="#00f0ff"/></linearGradient><linearGradient id="g2" x1="381.5" y1="391.3" x2="335.4" y2="130.2" href="#P"><stop stop-color="#00f0ff"/><stop offset=".6" stop-color="#00abff"/><stop offset="1" stop-color="#0078ff"/></linearGradient><linearGradient id="g3" x1="240" y1="275.1" x2="140.2" y2="102.2" href="#P"><stop stop-color="#00f0ff"/><stop offset="1" stop-color="#0078ff"/></linearGradient><linearGradient id="g4" x1="359.7" y1="103.4" x2="225.3" y2="336.2" href="#P"><stop stop-color="#0078ff"/><stop offset="1" stop-color="#00f0ff"/></linearGradient></defs><style>.a{fill:url(#g1)}.b{fill:url(#g2)}.c{fill:url(#g3)}.d{fill:url(#g4)}.e{opacity:.2;fill:#0078dc}</style><path class="a" d="m179.6 238.2v120.9c-1.1 1-2.2 1.9-3.4 2.8-18.5 14.5-40.9 24.3-65.3 27.8v-269.5z"/><path class="b" d="m389.1 120.8v269.2c-24.4-3.6-46.6-13.4-65.1-27.9-1.2-1-2.5-2-3.7-3v-120.6l68.6-117.7c0.1 0 0.1 0 0.2 0z"/><path class="c" d="m250.4 224l-39.7 68-31.8-54.7-68.7-117.8c0.1 0 0.1 0 0.1 0 22.9-9 47.1-11.5 70.3-8 1.6 0.2 3.1 0.5 4.6 0.7z"/><path class="d" d="m389.8 120.7l-0.1 0.2-68.6 117.7-31.4 54c0 0-34.5 52.5-40.4 57.4-3.9-3.3-38.6-58-38.6-58l39.6-68 64.4-110.6c1.6-0.2 3.1-0.5 4.7-0.7 23.3-3.5 47.5-0.9 70.4 8z"/><path class="e" d="m246.8 218.6l3.6 6.2-39.6 67.9c-0.6-0.8-1-1.7-1.5-2.4 0-0.1-0.1-0.1-0.1-0.2l-2-3.5z"/><path class="e" d="m110.2 129.3c0 0-0.6-8.9 0-9.8l68.7 117.9v8.6z"/><path class="e" d="m321.1 247.4v-8.7l68.7-117.9c0.5 0.8 0 9.7 0 9.7z"/></svg>